<?xml version="1.0" encoding="UTF-8"?>
<!DOCTYPE svg PUBLIC "-//W3C//DTD SVG 1.1//EN" "http://www.w3.org/Graphics/SVG/1.1/DTD/svg11.dtd">
<svg xmlns="http://www.w3.org/2000/svg" version="1.1" width="256px" height="256px" style="shape-rendering:geometricPrecision; text-rendering:geometricPrecision; image-rendering:optimizeQuality; fill-rule:evenodd; clip-rule:evenodd" xmlns:xlink="http://www.w3.org/1999/xlink">
<g><path style="opacity:0.016" fill="#fe573b" d="M 115.5,25.5 C 123.656,24.3434 131.99,24.1768 140.5,25C 132.173,25.4997 123.84,25.6664 115.5,25.5 Z"/></g>
<g><path style="opacity:0.012" fill="#fe5034" d="M 109.5,26.5 C 110.946,25.3871 112.613,25.2204 114.5,26C 112.866,26.4935 111.199,26.6602 109.5,26.5 Z"/></g>
<g><path style="opacity:0.016" fill="#ff5a3c" d="M 103.5,27.5 C 104.946,26.3871 106.613,26.2204 108.5,27C 106.866,27.4935 105.199,27.6602 103.5,27.5 Z"/></g>
<g><path style="opacity:0.012" fill="#fe5d42" d="M 93.5,30.5 C 94.2506,29.4265 95.2506,29.2599 96.5,30C 95.552,30.4828 94.552,30.6495 93.5,30.5 Z"/></g>
<g><path style="opacity:0.016" fill="#fe5438" d="M 93.5,30.5 C 93.1034,31.525 92.4368,31.6917 91.5,31C 92.0944,30.5357 92.7611,30.369 93.5,30.5 Z"/></g>
<g><path style="opacity:1" fill="#fe4f32" d="M 176.5,43.5 C 180.553,46.8827 184.886,49.8827 189.5,52.5C 194.167,57.8333 199.167,62.8333 204.5,67.5C 204.738,69.4044 205.738,70.7377 207.5,71.5C 207.427,73.0269 208.094,74.0269 209.5,74.5C 209.427,76.0269 210.094,77.0269 211.5,77.5C 227.671,106.899 229.671,137.233 217.5,168.5C 215.659,170.849 214.326,173.515 213.5,176.5C 210.779,179.894 208.446,183.561 206.5,187.5C 204.413,188.585 203.08,190.251 202.5,192.5C 198.167,196.167 194.167,200.167 190.5,204.5C 188.596,204.738 187.262,205.738 186.5,207.5C 182.975,208.759 179.975,210.759 177.5,213.5C 176.508,213.328 175.842,213.662 175.5,214.5C 145.922,228.984 115.922,229.984 85.5,217.5C 84.4863,216.326 83.153,215.66 81.5,215.5C 77.1813,212.004 72.5146,209.004 67.5,206.5C 68.1667,207.5 68.8333,208.5 69.5,209.5C 68.609,210.11 67.609,210.443 66.5,210.5C 66.1667,210.5 65.8333,210.5 65.5,210.5C 65.5,209.833 65.1667,209.5 64.5,209.5C 60.1927,205.528 55.8593,201.528 51.5,197.5C 51.5,196.833 51.1667,196.5 50.5,196.5C 48.5179,193.19 46.1846,190.19 43.5,187.5C 43.0679,186.29 42.4013,185.29 41.5,184.5C 41.0679,183.29 40.4013,182.29 39.5,181.5C 39.5,181.167 39.5,180.833 39.5,180.5C 39.4992,176.397 38.1659,172.397 35.5,168.5C 35.6236,167.893 35.9569,167.56 36.5,167.5C 38.3437,171.864 40.677,175.864 43.5,179.5C 29.7726,153.393 26.7726,126.059 34.5,97.5C 36.4032,94.4701 37.7365,91.1368 38.5,87.5C 41.2583,84.322 43.2583,80.6553 44.5,76.5C 45.9063,76.0269 46.573,75.0269 46.5,73.5C 48.2624,72.7377 49.2624,71.4044 49.5,69.5C 51.914,68.0892 53.5806,66.0892 54.5,63.5C 57.5,61.1667 60.1667,58.5 62.5,55.5C 65.0892,54.5806 67.0892,52.914 68.5,50.5C 70.4044,50.2624 71.7377,49.2624 72.5,47.5C 76.173,45.9998 79.5063,43.9998 82.5,41.5C 84.099,41.7678 85.4324,41.4345 86.5,40.5C 116.901,27.7778 146.901,28.7778 176.5,43.5 Z"/></g>
<g><path style="opacity:0.823" fill="#fe5538" d="M 197.5,53.5 C 197.5,54.1667 197.833,54.5 198.5,54.5C 198.5,55.1667 198.833,55.5 199.5,55.5C 199.5,56.1667 199.833,56.5 200.5,56.5C 200.5,57.1667 200.833,57.5 201.5,57.5C 213.801,70.7686 222.468,86.1019 227.5,103.5C 229.047,111.923 230.047,120.423 230.5,129C 229.95,137.562 228.95,146.062 227.5,154.5C 224.992,160.681 222.659,167.015 220.5,173.5C 219.662,173.842 219.328,174.508 219.5,175.5C 218.662,175.842 218.328,176.508 218.5,177.5C 217.662,177.842 217.328,178.508 217.5,179.5C 216.833,179.5 216.5,179.833 216.5,180.5C 215.662,180.842 215.328,181.508 215.5,182.5C 214.833,182.5 214.5,182.833 214.5,183.5C 213.662,183.842 213.328,184.508 213.5,185.5C 212.833,185.5 212.5,185.833 212.5,186.5C 211.662,186.842 211.328,187.508 211.5,188.5C 210.833,188.5 210.5,188.833 210.5,189.5C 209.833,189.5 209.5,189.833 209.5,190.5C 208.662,190.842 208.328,191.508 208.5,192.5C 207.833,192.5 207.5,192.833 207.5,193.5C 206.833,193.5 206.5,193.833 206.5,194.5C 205.833,194.5 205.5,194.833 205.5,195.5C 204.026,196.436 203.026,197.77 202.5,199.5C 201.833,199.5 201.5,199.833 201.5,200.5C 200.833,200.5 200.5,200.833 200.5,201.5C 199.833,201.5 199.5,201.833 199.5,202.5C 198.833,202.5 198.5,202.833 198.5,203.5C 197.833,203.5 197.5,203.833 197.5,204.5C 195.246,205.124 193.579,206.457 192.5,208.5C 190.246,209.124 188.579,210.457 187.5,212.5C 186.508,212.328 185.842,212.662 185.5,213.5C 184.833,213.5 184.5,213.833 184.5,214.5C 183.508,214.328 182.842,214.662 182.5,215.5C 181.833,215.5 181.5,215.833 181.5,216.5C 178.669,217.079 176.336,218.412 174.5,220.5C 173.508,220.328 172.842,220.662 172.5,221.5C 171.508,221.328 170.842,221.662 170.5,222.5C 169.508,222.328 168.842,222.662 168.5,223.5C 167.209,223.263 166.209,223.596 165.5,224.5C 164.508,224.328 163.842,224.662 163.5,225.5C 162.209,225.263 161.209,225.596 160.5,226.5C 159.209,226.263 158.209,226.596 157.5,227.5C 152.948,228.057 148.615,229.057 144.5,230.5C 141.615,230.194 138.948,230.527 136.5,231.5C 122.233,231.878 108.233,230.211 94.5,226.5C 93.2196,225.069 91.5529,224.402 89.5,224.5C 84.3868,221.441 79.0534,218.608 73.5,216C 70.98,214.303 68.6467,212.47 66.5,210.5C 67.609,210.443 68.609,210.11 69.5,209.5C 73.2549,211.904 77.2549,213.904 81.5,215.5C 83.153,215.66 84.4863,216.326 85.5,217.5C 98.3336,224.499 112.167,227.832 127,227.5C 140.746,228.053 153.912,225.553 166.5,220C 169.898,218.643 172.898,216.81 175.5,214.5C 175.842,213.662 176.508,213.328 177.5,213.5C 181.049,212.277 184.049,210.277 186.5,207.5C 188.404,207.262 189.738,206.262 190.5,204.5C 195.5,201.5 199.5,197.5 202.5,192.5C 204.587,191.415 205.92,189.749 206.5,187.5C 210.01,184.642 212.343,180.976 213.5,176.5C 215.873,174.421 217.206,171.754 217.5,168.5C 222.328,159.54 225.161,149.873 226,139.5C 228.372,116.996 223.539,96.3292 211.5,77.5C 211.573,75.9731 210.906,74.9731 209.5,74.5C 209.573,72.9731 208.906,71.9731 207.5,71.5C 207.262,69.5956 206.262,68.2623 204.5,67.5C 200.5,61.5 195.5,56.5 189.5,52.5C 185.999,48.3375 181.665,45.3375 176.5,43.5C 174.572,41.5259 172.239,40.0259 169.5,39C 150.965,30.9344 131.632,28.2677 111.5,31C 102.095,32.8017 93.0949,35.8017 84.5,40C 85.0944,40.4643 85.7611,40.631 86.5,40.5C 85.4324,41.4345 84.099,41.7678 82.5,41.5C 78.4945,42.4977 75.1612,44.4977 72.5,47.5C 70.5956,47.7376 69.2623,48.7376 68.5,50.5C 65.9108,51.4194 63.9108,53.086 62.5,55.5C 58.8333,57.1667 56.1667,59.8333 54.5,63.5C 52.086,64.9108 50.4194,66.9108 49.5,69.5C 47.7376,70.2623 46.7376,71.5956 46.5,73.5C 45.0937,73.9731 44.427,74.9731 44.5,76.5C 42.8414,78.4691 41.1747,80.4691 39.5,82.5C 38.5481,84.0453 38.2148,85.712 38.5,87.5C 36.2057,90.3695 34.8723,93.7029 34.5,97.5C 26.2796,120.944 26.9462,144.277 36.5,167.5C 35.9569,167.56 35.6236,167.893 35.5,168.5C 38.1659,172.397 39.4992,176.397 39.5,180.5C 38.8333,179.833 38.1667,179.167 37.5,178.5C 37.6716,177.508 37.3382,176.842 36.5,176.5C 36.6716,175.508 36.3382,174.842 35.5,174.5C 35.6716,173.508 35.3382,172.842 34.5,172.5C 34.6716,171.508 34.3382,170.842 33.5,170.5C 33.6716,169.508 33.3382,168.842 32.5,168.5C 32.7373,167.209 32.404,166.209 31.5,165.5C 31.0719,162.215 30.0719,159.215 28.5,156.5C 28.7373,155.209 28.404,154.209 27.5,153.5C 27.7845,151.585 27.4511,149.919 26.5,148.5C 22.9699,125.547 25.9699,103.547 35.5,82.5C 39.5734,76.0303 43.9067,69.6969 48.5,63.5C 49.1667,63.5 49.5,63.1667 49.5,62.5C 53.1667,58.1667 57.1667,54.1667 61.5,50.5C 62.1667,50.5 62.5,50.1667 62.5,49.5C 93.4341,25.956 127.434,20.456 164.5,33C 176.838,37.8278 187.838,44.6612 197.5,53.5 Z"/></g>
<g><path style="opacity:1" fill="#ffaea0" d="M 82.5,41.5 C 79.5063,43.9998 76.173,45.9998 72.5,47.5C 75.1612,44.4977 78.4945,42.4977 82.5,41.5 Z"/></g>
<g><path style="opacity:1" fill="#ffa697" d="M 176.5,43.5 C 146.901,28.7778 116.901,27.7778 86.5,40.5C 85.7611,40.631 85.0944,40.4643 84.5,40C 93.0949,35.8017 102.095,32.8017 111.5,31C 131.632,28.2677 150.965,30.9344 169.5,39C 172.239,40.0259 174.572,41.5259 176.5,43.5 Z"/></g>
<g><path style="opacity:1" fill="#ffaa9c" d="M 176.5,43.5 C 181.665,45.3375 185.999,48.3375 189.5,52.5C 184.886,49.8827 180.553,46.8827 176.5,43.5 Z"/></g>
<g><path style="opacity:1" fill="#ffab9c" d="M 72.5,47.5 C 71.7377,49.2624 70.4044,50.2624 68.5,50.5C 69.2623,48.7376 70.5956,47.7376 72.5,47.5 Z"/></g>
<g><path style="opacity:0.004" fill="#fe492c" d="M 62.5,49.5 C 61.8333,49.5 61.5,49.8333 61.5,50.5C 59.0248,50.2533 59.0248,49.5866 61.5,48.5C 62.1067,48.6236 62.44,48.9569 62.5,49.5 Z"/></g>
<g><path style="opacity:0.006" fill="#fe5033" d="M 197.5,53.5 C 199.664,52.8817 201.33,53.8817 202.5,56.5C 202.376,57.1067 202.043,57.44 201.5,57.5C 200.833,57.5 200.5,57.1667 200.5,56.5C 199.833,56.5 199.5,56.1667 199.5,55.5C 198.833,55.5 198.5,55.1667 198.5,54.5C 197.833,54.5 197.5,54.1667 197.5,53.5 Z"/></g>
<g><path style="opacity:1" fill="#ff9783" d="M 68.5,50.5 C 67.0892,52.914 65.0892,54.5806 62.5,55.5C 63.9108,53.086 65.9108,51.4194 68.5,50.5 Z"/></g>
<g><path style="opacity:1" fill="#ffa899" d="M 189.5,52.5 C 195.5,56.5 200.5,61.5 204.5,67.5C 199.167,62.8333 194.167,57.8333 189.5,52.5 Z"/></g>
<g><path style="opacity:1" fill="#feaea0" d="M 62.5,55.5 C 60.1667,58.5 57.5,61.1667 54.5,63.5C 56.1667,59.8333 58.8333,57.1667 62.5,55.5 Z"/></g>
<g><path style="opacity:0.01" fill="#fe5033" d="M 49.5,62.5 C 48.8333,62.5 48.5,62.8333 48.5,63.5C 47.2875,62.5029 47.4542,61.5029 49,60.5C 49.4643,61.0944 49.631,61.7611 49.5,62.5 Z"/></g>
<g><path style="opacity:1" fill="#ffa392" d="M 54.5,63.5 C 53.5806,66.0892 51.914,68.0892 49.5,69.5C 50.4194,66.9108 52.086,64.9108 54.5,63.5 Z"/></g>
<g><path style="opacity:1" fill="#ffaea0" d="M 204.5,67.5 C 206.262,68.2623 207.262,69.5956 207.5,71.5C 205.738,70.7377 204.738,69.4044 204.5,67.5 Z"/></g>
<g><path style="opacity:1" fill="#ffa99a" d="M 49.5,69.5 C 49.2624,71.4044 48.2624,72.7377 46.5,73.5C 46.7376,71.5956 47.7376,70.2623 49.5,69.5 Z"/></g>
<g><path style="opacity:1" fill="#ffdfd9" d="M 130.5,70.5 C 133.861,71.2032 134.194,72.5365 131.5,74.5C 130.571,73.3112 130.238,71.9778 130.5,70.5 Z"/></g>
<g><path style="opacity:1" fill="#ffeeea" d="M 129.5,127.5 C 129.657,126.127 129.49,124.793 129,123.5C 125.771,127.755 121.771,130.755 117,132.5C 114.383,132.873 112.55,131.873 111.5,129.5C 108.572,128.516 105.572,128.183 102.5,128.5C 102.5,127.5 102.5,126.5 102.5,125.5C 105.187,125.664 107.854,125.497 110.5,125C 108.5,124.667 106.5,124.333 104.5,124C 104.043,123.586 103.709,123.086 103.5,122.5C 107.377,121.803 111.21,121.136 115,120.5C 118.817,116.842 121.65,112.509 123.5,107.5C 122.754,106.264 122.421,104.93 122.5,103.5C 117.878,103.545 115.545,101.212 115.5,96.5C 113.396,96.7989 111.396,96.4656 109.5,95.5C 109.709,94.914 110.043,94.414 110.5,94C 112.833,93.6667 115.167,93.3333 117.5,93C 119.833,90.6667 122.167,88.3333 124.5,86C 127.859,85.2287 131.192,84.3953 134.5,83.5C 135.452,81.9547 135.785,80.288 135.5,78.5C 131.297,78.9239 127.297,78.4239 123.5,77C 127.689,75.8913 132.023,75.058 136.5,74.5C 134.665,73.5723 134.332,72.4056 135.5,71C 140.426,69.9638 145.093,70.4638 149.5,72.5C 152.242,74.9331 153.075,77.9331 152,81.5C 150.305,84.6945 147.805,87.0278 144.5,88.5C 146.409,92.6726 149.742,94.8393 154.5,95C 158.485,98.3807 158.485,101.714 154.5,105C 149.575,105.751 144.909,104.918 140.5,102.5C 140.167,102.833 139.833,103.167 139.5,103.5C 142.609,105.475 145.443,107.808 148,110.5C 148.667,112.5 148.667,114.5 148,116.5C 145.542,121.253 142.708,125.753 139.5,130C 135.362,132.299 132.028,131.465 129.5,127.5 Z"/></g>
<g><path style="opacity:1" fill="#ffaea0" d="M 207.5,71.5 C 208.906,71.9731 209.573,72.9731 209.5,74.5C 208.094,74.0269 207.427,73.0269 207.5,71.5 Z"/></g>
<g><path style="opacity:1" fill="#ffaea1" d="M 46.5,73.5 C 46.573,75.0269 45.9063,76.0269 44.5,76.5C 44.427,74.9731 45.0937,73.9731 46.5,73.5 Z"/></g>
<g><path style="opacity:1" fill="#fe5235" d="M 140.5,73.5 C 146.83,72.6662 149.663,75.3329 149,81.5C 146.162,85.0349 142.995,85.3682 139.5,82.5C 137.992,79.2313 138.325,76.2313 140.5,73.5 Z"/></g>
<g><path style="opacity:1" fill="#ffaea0" d="M 209.5,74.5 C 210.906,74.9731 211.573,75.9731 211.5,77.5C 210.094,77.0269 209.427,76.0269 209.5,74.5 Z"/></g>
<g><path style="opacity:0.016" fill="#ff6e54" d="M 35.5,82.5 C 35.1667,82.5 34.8333,82.5 34.5,82.5C 34.8333,79.8333 35.1667,79.8333 35.5,82.5 Z"/></g>
<g><path style="opacity:0.996" fill="#ff8f79" d="M 44.5,76.5 C 43.2583,80.6553 41.2583,84.322 38.5,87.5C 38.2148,85.712 38.5481,84.0453 39.5,82.5C 41.1747,80.4691 42.8414,78.4691 44.5,76.5 Z"/></g>
<g><path style="opacity:0.016" fill="#ff6d51" d="M 34.5,82.5 C 34.631,83.2389 34.4643,83.9056 34,84.5C 33.3083,83.5632 33.475,82.8966 34.5,82.5 Z"/></g>
<g><path style="opacity:1" fill="#fe5235" d="M 134.5,86.5 C 136.199,86.3398 137.866,86.5065 139.5,87C 142.08,93.2391 146.747,96.9058 153.5,98C 155.118,100.8 154.285,102.3 151,102.5C 146.755,101.979 143.088,100.313 140,97.5C 138.5,99.8333 137,102.167 135.5,104.5C 139.535,106.876 142.869,109.876 145.5,113.5C 143.408,119.358 140.074,124.358 135.5,128.5C 133.954,127.788 132.954,126.622 132.5,125C 134.367,121.435 136.367,117.935 138.5,114.5C 134.422,111.377 130.255,108.377 126,105.5C 127,101.5 128,97.5 129,93.5C 126.833,95.6667 124.667,97.8333 122.5,100C 120.393,100.854 119.059,100.188 118.5,98C 120.486,95.3442 122.486,92.6775 124.5,90C 127.942,88.8164 131.275,87.6497 134.5,86.5 Z"/></g>
<g><path style="opacity:1" fill="#ffafa1" d="M 38.5,87.5 C 37.7365,91.1368 36.4032,94.4701 34.5,97.5C 34.8723,93.7029 36.2057,90.3695 38.5,87.5 Z"/></g>
<g><path style="opacity:1" fill="#ffefec" d="M 113.5,89.5 C 114.5,89.5 115.5,89.5 116.5,89.5C 116.5,90.5 116.5,91.5 116.5,92.5C 115.5,92.5 114.5,92.5 113.5,92.5C 113.5,91.5 113.5,90.5 113.5,89.5 Z"/></g>
<g><path style="opacity:1" fill="#ffd4cb" d="M 105.5,93.5 C 108.861,94.2032 109.194,95.5365 106.5,97.5C 104.358,96.5629 104.024,95.2296 105.5,93.5 Z"/></g>
<g><path style="opacity:1" fill="#ffebe7" d="M 109.5,98.5 C 110.5,98.5 111.5,98.5 112.5,98.5C 111.754,102.31 110.754,102.31 109.5,98.5 Z"/></g>
<g><path style="opacity:0.012" fill="#fe563b" d="M 228.5,103.5 C 228.167,103.5 227.833,103.5 227.5,103.5C 227.833,98.1667 228.167,98.1667 228.5,103.5 Z"/></g>
<g><path style="opacity:0.016" fill="#fe5c40" d="M 228.5,103.5 C 229.573,104.251 229.74,105.251 229,106.5C 228.517,105.552 228.351,104.552 228.5,103.5 Z"/></g>
<g><path style="opacity:1" fill="#fe5235" d="M 125.5,110.5 C 128.127,110.293 129.793,111.46 130.5,114C 127.62,119.551 123.954,124.551 119.5,129C 117.833,129.667 116.167,129.667 114.5,129C 113.483,127.951 113.316,126.784 114,125.5C 119.199,121.478 123.032,116.478 125.5,110.5 Z"/></g>
<g><path style="opacity:1" fill="#ffe5e0" d="M 110.5,117.5 C 111.978,117.238 113.311,117.571 114.5,118.5C 113.833,118.833 113.167,119.167 112.5,119.5C 111.287,119.253 110.62,118.586 110.5,117.5 Z"/></g>
<g><path style="opacity:1" fill="#fff0ee" d="M 98.5,125.5 C 101.674,125.952 102.007,126.952 99.5,128.5C 97.4807,127.867 97.1474,126.867 98.5,125.5 Z"/></g>
<g><path style="opacity:1" fill="#ffebe7" d="M 129.5,127.5 C 128.246,131.31 127.246,131.31 126.5,127.5C 127.5,127.5 128.5,127.5 129.5,127.5 Z"/></g>
<g><path style="opacity:1" fill="#ffece9" d="M 102.5,129.5 C 103.5,129.5 104.5,129.5 105.5,129.5C 105.5,130.5 105.5,131.5 105.5,132.5C 104.5,132.5 103.5,132.5 102.5,132.5C 102.5,131.5 102.5,130.5 102.5,129.5 Z"/></g>
<g><path style="opacity:1" fill="#ffa899" d="M 211.5,77.5 C 223.539,96.3292 228.372,116.996 226,139.5C 225.161,149.873 222.328,159.54 217.5,168.5C 229.671,137.233 227.671,106.899 211.5,77.5 Z"/></g>
<g><path style="opacity:1" fill="#ffa697" d="M 34.5,97.5 C 26.7726,126.059 29.7726,153.393 43.5,179.5C 40.677,175.864 38.3437,171.864 36.5,167.5C 26.9462,144.277 26.2796,120.944 34.5,97.5 Z"/></g>
<g><path style="opacity:1" fill="#fff4f2" d="M 89.5,177.5 C 88.9569,177.56 88.6236,177.893 88.5,178.5C 91.4281,179.484 94.4281,179.817 97.5,179.5C 97.5,179.833 97.5,180.167 97.5,180.5C 93.7564,181.761 89.7564,182.428 85.5,182.5C 81.6508,182.499 77.9841,182.165 74.5,181.5C 77.3373,179.598 80.6707,178.931 84.5,179.5C 85.195,170.724 86.5283,162.058 88.5,153.5C 85.5719,152.516 82.5719,152.183 79.5,152.5C 79.5,151.5 79.5,150.5 79.5,149.5C 84.5417,148.708 89.5417,147.708 94.5,146.5C 92.6725,156.809 91.0058,167.143 89.5,177.5 Z"/></g>
<g><path style="opacity:1" fill="#fff3f1" d="M 108.5,182.5 C 106.219,182.923 104.552,182.256 103.5,180.5C 105.382,169.206 107.049,157.873 108.5,146.5C 110.527,146.338 112.527,146.505 114.5,147C 112.781,153.045 111.947,159.211 112,165.5C 118.833,159.333 125.667,153.167 132.5,147C 134.833,146.333 137.167,146.333 139.5,147C 133.991,151.343 128.991,156.176 124.5,161.5C 127.497,168.162 130.497,174.828 133.5,181.5C 131.647,182.76 129.814,182.76 128,181.5C 125.494,175.814 122.494,170.481 119,165.5C 116.011,167.819 113.011,170.153 110,172.5C 108.801,175.726 108.301,179.059 108.5,182.5 Z"/></g>
<g><path style="opacity:1" fill="#fff3f0" d="M 175.5,180.5 C 174.221,181.968 172.554,182.635 170.5,182.5C 170.5,181.5 170.5,180.5 170.5,179.5C 171.844,171.145 173.01,162.812 174,154.5C 169,163.833 164,173.167 159,182.5C 157.644,183.38 156.144,183.714 154.5,183.5C 152.714,173.168 150.881,162.835 149,152.5C 146.655,162.416 144.822,172.416 143.5,182.5C 141.801,182.66 140.134,182.494 138.5,182C 140.888,170.269 142.888,158.436 144.5,146.5C 147.5,146.5 150.5,146.5 153.5,146.5C 154.765,156.523 156.265,166.523 158,176.5C 162.769,166.461 167.936,156.628 173.5,147C 176.167,146.333 178.833,146.333 181.5,147C 179.235,158.089 177.235,169.255 175.5,180.5 Z"/></g>
<g><path style="opacity:0.008" fill="#ff644a" d="M 26.5,148.5 C 26.5,150.167 26.5,151.833 26.5,153.5C 25.1667,151.833 25.1667,150.167 26.5,148.5 Z"/></g>
<g><path style="opacity:0.012" fill="#fe5639" d="M 26.5,153.5 C 26.8333,153.5 27.1667,153.5 27.5,153.5C 27.5,154.5 27.5,155.5 27.5,156.5C 26.596,155.791 26.2627,154.791 26.5,153.5 Z"/></g>
<g><path style="opacity:0.016" fill="#fe563a" d="M 227.5,154.5 C 228.573,155.251 228.74,156.251 228,157.5C 227.517,156.552 227.351,155.552 227.5,154.5 Z"/></g>
<g><path style="opacity:0.016" fill="#fe472c" d="M 27.5,156.5 C 27.8333,156.5 28.1667,156.5 28.5,156.5C 28.1667,160.5 27.8333,160.5 27.5,156.5 Z"/></g>
<g><path style="opacity:0.008" fill="#fe583d" d="M 226.5,158.5 C 227.525,158.897 227.692,159.563 227,160.5C 226.536,159.906 226.369,159.239 226.5,158.5 Z"/></g>
<g><path style="opacity:0.008" fill="#fe593d" d="M 28.5,160.5 C 29.525,160.897 29.6917,161.563 29,162.5C 28.5357,161.906 28.369,161.239 28.5,160.5 Z"/></g>
<g><path style="opacity:0.008" fill="#fe583c" d="M 225.5,161.5 C 226.525,161.897 226.692,162.563 226,163.5C 225.536,162.906 225.369,162.239 225.5,161.5 Z"/></g>
<g><path style="opacity:0.008" fill="#fe6046" d="M 30.5,165.5 C 29.475,165.103 29.3083,164.437 30,163.5C 30.4643,164.094 30.631,164.761 30.5,165.5 Z"/></g>
<g><path style="opacity:0.008" fill="#fe5e43" d="M 224.5,164.5 C 225.525,164.897 225.692,165.563 225,166.5C 224.536,165.906 224.369,165.239 224.5,164.5 Z"/></g>
<g><path style="opacity:0.012" fill="#fe583b" d="M 30.5,165.5 C 30.8333,165.5 31.1667,165.5 31.5,165.5C 31.5,166.5 31.5,167.5 31.5,168.5C 30.596,167.791 30.2627,166.791 30.5,165.5 Z"/></g>
<g><path style="opacity:0.004" fill="#fe5f44" d="M 31.5,168.5 C 31.8333,168.5 32.1667,168.5 32.5,168.5C 32.5,169.167 32.5,169.833 32.5,170.5C 31.6618,170.158 31.3284,169.492 31.5,168.5 Z"/></g>
<g><path style="opacity:0.008" fill="#fe644a" d="M 32.5,170.5 C 32.8333,170.5 33.1667,170.5 33.5,170.5C 33.5,171.167 33.5,171.833 33.5,172.5C 32.6618,172.158 32.3284,171.492 32.5,170.5 Z"/></g>
<g><path style="opacity:0.012" fill="#fe593d" d="M 33.5,172.5 C 33.8333,172.5 34.1667,172.5 34.5,172.5C 34.5,173.167 34.5,173.833 34.5,174.5C 33.6618,174.158 33.3284,173.492 33.5,172.5 Z"/></g>
<g><path style="opacity:1" fill="#ffad9f" d="M 217.5,168.5 C 217.206,171.754 215.873,174.421 213.5,176.5C 214.326,173.515 215.659,170.849 217.5,168.5 Z"/></g>
<g><path style="opacity:0.004" fill="#fe6950" d="M 220.5,173.5 C 221.833,174.167 221.833,174.833 220.5,175.5C 220.5,174.833 220.5,174.167 220.5,173.5 Z"/></g>
<g><path style="opacity:0.012" fill="#fe5a3e" d="M 34.5,174.5 C 34.8333,174.5 35.1667,174.5 35.5,174.5C 35.5,175.167 35.5,175.833 35.5,176.5C 34.6618,176.158 34.3284,175.492 34.5,174.5 Z"/></g>
<g><path style="opacity:0.004" fill="#fe6950" d="M 219.5,175.5 C 219.833,175.5 220.167,175.5 220.5,175.5C 220.672,176.492 220.338,177.158 219.5,177.5C 219.5,176.833 219.5,176.167 219.5,175.5 Z"/></g>
<g><path style="opacity:0.008" fill="#fe5f43" d="M 35.5,176.5 C 35.8333,176.5 36.1667,176.5 36.5,176.5C 36.5,177.167 36.5,177.833 36.5,178.5C 35.6618,178.158 35.3284,177.492 35.5,176.5 Z"/></g>
<g><path style="opacity:1" fill="#fe9887" d="M 89.5,177.5 C 92.1667,178.167 94.8333,178.833 97.5,179.5C 94.4281,179.817 91.4281,179.484 88.5,178.5C 88.6236,177.893 88.9569,177.56 89.5,177.5 Z"/></g>
<g><path style="opacity:0.004" fill="#fe6e55" d="M 218.5,177.5 C 218.833,177.5 219.167,177.5 219.5,177.5C 219.672,178.492 219.338,179.158 218.5,179.5C 218.5,178.833 218.5,178.167 218.5,177.5 Z"/></g>
<g><path style="opacity:0.004" fill="#fe6b51" d="M 36.5,178.5 C 36.8333,178.5 37.1667,178.5 37.5,178.5C 37.1667,181.167 36.8333,181.167 36.5,178.5 Z"/></g>
<g><path style="opacity:0.016" fill="#fd6045" d="M 217.5,179.5 C 217.833,179.5 218.167,179.5 218.5,179.5C 218.315,180.17 217.981,180.17 217.5,179.5 Z"/></g>
<g><path style="opacity:1" fill="#ffafa1" d="M 43.5,179.5 C 44.9063,179.973 45.573,180.973 45.5,182.5C 44.0937,182.027 43.427,181.027 43.5,179.5 Z"/></g>
<g><path style="opacity:0.012" fill="#fe5136" d="M 216.5,180.5 C 216.833,180.5 217.167,180.5 217.5,180.5C 217.672,181.492 217.338,182.158 216.5,182.5C 216.5,181.833 216.5,181.167 216.5,180.5 Z"/></g>
<g><path style="opacity:0.012" fill="#fe4c31" d="M 39.5,181.5 C 39.631,182.239 39.4643,182.906 39,183.5C 38.3083,182.563 38.475,181.897 39.5,181.5 Z"/></g>
<g><path style="opacity:1" fill="#ffa090" d="M 97.5,180.5 C 97.5,181.5 97.5,182.5 97.5,183.5C 89.4723,183.831 81.4723,183.498 73.5,182.5C 73.6236,181.893 73.9569,181.56 74.5,181.5C 77.9841,182.165 81.6508,182.499 85.5,182.5C 89.7564,182.428 93.7564,181.761 97.5,180.5 Z"/></g>
<g><path style="opacity:1" fill="#ff9988" d="M 103.5,180.5 C 104.552,182.256 106.219,182.923 108.5,182.5C 106.735,183.461 104.735,183.795 102.5,183.5C 102.263,182.209 102.596,181.209 103.5,180.5 Z"/></g>
<g><path style="opacity:1" fill="#ff9f8f" d="M 170.5,179.5 C 170.5,180.5 170.5,181.5 170.5,182.5C 172.554,182.635 174.221,181.968 175.5,180.5C 175.5,181.5 175.5,182.5 175.5,183.5C 173.5,183.5 171.5,183.5 169.5,183.5C 169.232,181.901 169.566,180.568 170.5,179.5 Z"/></g>
<g><path style="opacity:0.02" fill="#fd5539" d="M 215.5,182.5 C 215.833,182.5 216.167,182.5 216.5,182.5C 216.315,183.17 215.981,183.17 215.5,182.5 Z"/></g>
<g><path style="opacity:1" fill="#ffb3a7" d="M 45.5,182.5 C 46.9063,182.973 47.573,183.973 47.5,185.5C 46.0937,185.027 45.427,184.027 45.5,182.5 Z"/></g>
<g><path style="opacity:0.012" fill="#fe4d30" d="M 214.5,183.5 C 214.833,183.5 215.167,183.5 215.5,183.5C 215.672,184.492 215.338,185.158 214.5,185.5C 214.5,184.833 214.5,184.167 214.5,183.5 Z"/></g>
<g><path style="opacity:0.012" fill="#fe4c2f" d="M 41.5,184.5 C 41.631,185.239 41.4643,185.906 41,186.5C 40.3083,185.563 40.475,184.897 41.5,184.5 Z"/></g>
<g><path style="opacity:1" fill="#ffa899" d="M 213.5,176.5 C 212.343,180.976 210.01,184.642 206.5,187.5C 208.446,183.561 210.779,179.894 213.5,176.5 Z"/></g>
<g><path style="opacity:1" fill="#ffaa9b" d="M 47.5,185.5 C 49.2624,186.262 50.2624,187.596 50.5,189.5C 48.7376,188.738 47.7376,187.404 47.5,185.5 Z"/></g>
<g><path style="opacity:0.012" fill="#fe563b" d="M 213.5,185.5 C 213.833,185.5 214.167,185.5 214.5,185.5C 214.573,187.027 213.906,188.027 212.5,188.5C 212.5,187.833 212.5,187.167 212.5,186.5C 213.167,186.5 213.5,186.167 213.5,185.5 Z"/></g>
<g><path style="opacity:0.008" fill="#fe4d30" d="M 43.5,187.5 C 43.631,188.239 43.4643,188.906 43,189.5C 42.3083,188.563 42.475,187.897 43.5,187.5 Z"/></g>
<g><path style="opacity:0.016" fill="#fd5134" d="M 211.5,188.5 C 211.833,188.5 212.167,188.5 212.5,188.5C 212.315,189.17 211.981,189.17 211.5,188.5 Z"/></g>
<g><path style="opacity:1" fill="#ffaa9b" d="M 206.5,187.5 C 205.92,189.749 204.587,191.415 202.5,192.5C 203.08,190.251 204.413,188.585 206.5,187.5 Z"/></g>
<g><path style="opacity:1" fill="#ffac9d" d="M 50.5,189.5 C 53.0735,190.879 54.5735,192.879 55,195.5C 52.8733,193.886 51.3733,191.886 50.5,189.5 Z"/></g>
<g><path style="opacity:0.012" fill="#fe482d" d="M 210.5,189.5 C 210.833,189.5 211.167,189.5 211.5,189.5C 211.573,191.027 210.906,192.027 209.5,192.5C 209.5,191.833 209.5,191.167 209.5,190.5C 210.167,190.5 210.5,190.167 210.5,189.5 Z"/></g>
<g><path style="opacity:0.016" fill="#fd5133" d="M 208.5,192.5 C 208.833,192.5 209.167,192.5 209.5,192.5C 209.315,193.17 208.981,193.17 208.5,192.5 Z"/></g>
<g><path style="opacity:0.02" fill="#fd5133" d="M 207.5,193.5 C 207.833,193.5 208.167,193.5 208.5,193.5C 208.315,194.17 207.981,194.17 207.5,193.5 Z"/></g>
<g><path style="opacity:0.004" fill="#fe4d2f" d="M 206.5,194.5 C 206.833,194.5 207.167,194.5 207.5,194.5C 206.968,197.46 206.301,197.793 205.5,195.5C 206.167,195.5 206.5,195.167 206.5,194.5 Z"/></g>
<g><path style="opacity:1" fill="#ffa190" d="M 202.5,192.5 C 199.5,197.5 195.5,201.5 190.5,204.5C 194.167,200.167 198.167,196.167 202.5,192.5 Z"/></g>
<g><path style="opacity:0.004" fill="#fe5033" d="M 50.5,196.5 C 51.1667,196.5 51.5,196.833 51.5,197.5C 51.2533,199.975 50.5866,199.975 49.5,197.5C 49.6236,196.893 49.9569,196.56 50.5,196.5 Z"/></g>
<g><path style="opacity:0.02" fill="#fd4f31" d="M 202.5,199.5 C 203.833,200.167 203.833,200.167 202.5,199.5 Z"/></g>
<g><path style="opacity:0.02" fill="#fd4f31" d="M 201.5,200.5 C 201.833,200.5 202.167,200.5 202.5,200.5C 202.315,201.17 201.981,201.17 201.5,200.5 Z"/></g>
<g><path style="opacity:0.02" fill="#fd4f31" d="M 200.5,201.5 C 200.833,201.5 201.167,201.5 201.5,201.5C 201.315,202.17 200.981,202.17 200.5,201.5 Z"/></g>
<g><path style="opacity:0.02" fill="#fd4f31" d="M 199.5,202.5 C 199.833,202.5 200.167,202.5 200.5,202.5C 200.315,203.17 199.981,203.17 199.5,202.5 Z"/></g>
<g><path style="opacity:1" fill="#ffaa9a" d="M 67.5,206.5 C 64.4372,204.949 61.7705,202.782 59.5,200C 62.8049,201.114 65.4716,203.281 67.5,206.5 Z"/></g>
<g><path style="opacity:0.02" fill="#fd4f31" d="M 198.5,203.5 C 198.833,203.5 199.167,203.5 199.5,203.5C 199.315,204.17 198.981,204.17 198.5,203.5 Z"/></g>
<g><path style="opacity:0.016" fill="#fd5336" d="M 197.5,204.5 C 197.833,204.5 198.167,204.5 198.5,204.5C 198.315,205.17 197.981,205.17 197.5,204.5 Z"/></g>
<g><path style="opacity:1" fill="#ffab9d" d="M 190.5,204.5 C 189.738,206.262 188.404,207.262 186.5,207.5C 187.262,205.738 188.596,204.738 190.5,204.5 Z"/></g>
<g><path style="opacity:0.02" fill="#fd5133" d="M 192.5,208.5 C 193.833,209.167 193.833,209.167 192.5,208.5 Z"/></g>
<g><path style="opacity:1" fill="#ffaa9b" d="M 67.5,206.5 C 72.5146,209.004 77.1813,212.004 81.5,215.5C 77.2549,213.904 73.2549,211.904 69.5,209.5C 68.8333,208.5 68.1667,207.5 67.5,206.5 Z"/></g>
<g><path style="opacity:0.012" fill="#fd4124" d="M 64.5,209.5 C 65.1667,209.5 65.5,209.833 65.5,210.5C 64.5029,211.713 63.5029,211.546 62.5,210C 63.0944,209.536 63.7611,209.369 64.5,209.5 Z"/></g>
<g><path style="opacity:1" fill="#ffaea0" d="M 186.5,207.5 C 184.049,210.277 181.049,212.277 177.5,213.5C 179.975,210.759 182.975,208.759 186.5,207.5 Z"/></g>
<g><path style="opacity:0.016" fill="#fd5336" d="M 187.5,212.5 C 188.833,213.167 188.833,213.167 187.5,212.5 Z"/></g>
<g><path style="opacity:0.004" fill="#fe5b3f" d="M 185.5,213.5 C 186.167,213.5 186.833,213.5 187.5,213.5C 187.027,214.906 186.027,215.573 184.5,215.5C 184.5,215.167 184.5,214.833 184.5,214.5C 185.167,214.5 185.5,214.167 185.5,213.5 Z"/></g>
<g><path style="opacity:0.012" fill="#fe452a" d="M 182.5,216.5 C 182.5,216.167 182.5,215.833 182.5,215.5C 183.167,215.5 183.833,215.5 184.5,215.5C 184.158,216.338 183.492,216.672 182.5,216.5 Z"/></g>
<g><path style="opacity:0.02" fill="#fd5032" d="M 181.5,216.5 C 181.833,216.5 182.167,216.5 182.5,216.5C 182.315,217.17 181.981,217.17 181.5,216.5 Z"/></g>
<g><path style="opacity:0.008" fill="#fe664c" d="M 174.5,221.5 C 174.5,221.167 174.5,220.833 174.5,220.5C 177.167,220.833 177.167,221.167 174.5,221.5 Z"/></g>
<g><path style="opacity:0.008" fill="#fe6247" d="M 172.5,222.5 C 172.5,222.167 172.5,221.833 172.5,221.5C 173.167,221.5 173.833,221.5 174.5,221.5C 174.158,222.338 173.492,222.672 172.5,222.5 Z"/></g>
<g><path style="opacity:0.008" fill="#fe5f43" d="M 170.5,223.5 C 170.5,223.167 170.5,222.833 170.5,222.5C 171.167,222.5 171.833,222.5 172.5,222.5C 172.158,223.338 171.492,223.672 170.5,223.5 Z"/></g>
<g><path style="opacity:1" fill="#ffa798" d="M 175.5,214.5 C 172.898,216.81 169.898,218.643 166.5,220C 153.912,225.553 140.746,228.053 127,227.5C 112.167,227.832 98.3336,224.499 85.5,217.5C 115.922,229.984 145.922,228.984 175.5,214.5 Z"/></g>
<g><path style="opacity:0.008" fill="#fe6d54" d="M 168.5,224.5 C 168.5,224.167 168.5,223.833 168.5,223.5C 169.167,223.5 169.833,223.5 170.5,223.5C 170.158,224.338 169.492,224.672 168.5,224.5 Z"/></g>
<g><path style="opacity:0.016" fill="#fe4f32" d="M 89.5,224.5 C 89.5,224.833 89.5,225.167 89.5,225.5C 86.8333,225.167 86.8333,224.833 89.5,224.5 Z"/></g>
<g><path style="opacity:0.016" fill="#fe5437" d="M 165.5,225.5 C 165.5,225.167 165.5,224.833 165.5,224.5C 166.5,224.5 167.5,224.5 168.5,224.5C 167.791,225.404 166.791,225.737 165.5,225.5 Z"/></g>
<g><path style="opacity:0.016" fill="#fe6146" d="M 89.5,225.5 C 90.2389,225.369 90.9056,225.536 91.5,226C 90.5632,226.692 89.8966,226.525 89.5,225.5 Z"/></g>
<g><path style="opacity:0.008" fill="#fe5f44" d="M 163.5,226.5 C 163.5,226.167 163.5,225.833 163.5,225.5C 164.167,225.5 164.833,225.5 165.5,225.5C 165.158,226.338 164.492,226.672 163.5,226.5 Z"/></g>
<g><path style="opacity:0.016" fill="#fe5438" d="M 94.5,226.5 C 94.5,226.833 94.5,227.167 94.5,227.5C 91.8333,227.167 91.8333,226.833 94.5,226.5 Z"/></g>
<g><path style="opacity:0.016" fill="#fe5c40" d="M 160.5,227.5 C 160.5,227.167 160.5,226.833 160.5,226.5C 161.5,226.5 162.5,226.5 163.5,226.5C 162.791,227.404 161.791,227.737 160.5,227.5 Z"/></g>
<g><path style="opacity:0.012" fill="#fe664c" d="M 94.5,227.5 C 95.552,227.351 96.552,227.517 97.5,228C 96.2506,228.74 95.2506,228.573 94.5,227.5 Z"/></g>
<g><path style="opacity:0.016" fill="#fe5b3f" d="M 157.5,228.5 C 157.5,228.167 157.5,227.833 157.5,227.5C 158.5,227.5 159.5,227.5 160.5,227.5C 159.791,228.404 158.791,228.737 157.5,228.5 Z"/></g>
<g><path style="opacity:0.012" fill="#fe6146" d="M 157.5,228.5 C 156.749,229.573 155.749,229.74 154.5,229C 155.448,228.517 156.448,228.351 157.5,228.5 Z"/></g>
<g><path style="opacity:0.016" fill="#fe5b3f" d="M 150.5,230.5 C 151.251,229.427 152.251,229.26 153.5,230C 152.552,230.483 151.552,230.649 150.5,230.5 Z"/></g>
<g><path style="opacity:0.004" fill="#fe6248" d="M 144.5,231.5 C 144.5,231.167 144.5,230.833 144.5,230.5C 151.167,230.833 151.167,231.167 144.5,231.5 Z"/></g>
<g><path style="opacity:0.016" fill="#fe573b" d="M 136.5,232.5 C 136.5,232.167 136.5,231.833 136.5,231.5C 139.167,231.5 141.833,231.5 144.5,231.5C 142.052,232.473 139.385,232.806 136.5,232.5 Z"/></g>
<g><path style="opacity:0.004" fill="#fe5b3e" d="M 136.5,232.5 C 131.015,233.652 125.349,233.818 119.5,233C 125.157,232.501 130.824,232.334 136.5,232.5 Z"/></g>
</svg>
