<svg xmlns="http://www.w3.org/2000/svg" width="256" height="256"><path fill="#1976D2" fill-opacity=".016" fill-rule="evenodd" d="M0 128.004v128.004l128.25-.254 128.25-.254.254-127.75L257.008 0H0zm.485.496c0 70.4.119 99.053.265 63.672s.146-92.98 0-128S.485 58.1.485 128.5"/><path fill="#1976D2" fill-opacity=".115" fill-rule="evenodd" d="M0 128.004v128.004l128.25-.254 128.25-.254.254-127.75L257.008 0H0zm.485.496c0 70.4.119 99.053.265 63.672s.146-92.98 0-128S.485 58.1.485 128.5M193.704 26.464c-11.555 3.012-17.783 16.161-12.824 27.077 6.709 14.772 28.191 15.273 35.187.821 4.656-9.618 1.497-20.679-7.344-25.714-5.565-3.17-9.206-3.7-15.019-2.184m-51.422 30.482c-11.239.438-14.557.893-15.832 2.172-1.417 1.42-6.945 20.217-10.924 37.146-1.177 5.004-1.159 5.96.131 7.25 3.383 3.383 8.054.963 9.678-5.014.299-1.1 2.402-7.963 4.672-15.25L134.136 70h9.932c5.463 0 9.932.205 9.932.456 0 1.21-9.115 23.838-11.493 28.53-1.489 2.938-4.988 8.08-7.776 11.428-2.788 3.347-6.553 8.403-8.366 11.235-1.814 2.832-6.766 8.232-11.004 12a3489 3489 0 0 0-15.194 13.601c-4.849 4.373-8.33 6.75-9.882 6.75-1.463 0-5.978-2.825-11.591-7.252-31.605-24.928-31.605-24.928-36.239-20.293-3.913 3.912-3.364 8.604 1.642 14.035 5.838 6.332 37.667 35.773 40.246 37.225 3.135 1.765 8.768 1.538 11.708-.472 1.403-.958 8.092-6.243 14.865-11.743s15.56-12.56 19.527-15.689l7.212-5.689 6.001 5.189c3.3 2.854 8.647 7.439 11.883 10.189s9.296 7.998 13.468 11.662l7.586 6.661 11.322 26.026c6.227 14.314 12.31 26.953 13.518 28.088 2.62 2.461 8.715 2.772 10.93.557 2.782-2.782 2.716-5.223-.412-15.132-1.712-5.424-6.053-19.087-9.647-30.362l-6.534-20.5-5.635-5.829c-3.099-3.205-10.697-10.339-16.885-15.851-6.187-5.513-11.25-10.404-11.25-10.869s4.273-6.527 9.496-13.472c9.225-12.267 9.526-12.552 10.5-9.988.552 1.451 1.004 3.524 1.004 4.606 0 3.321 2.713 8.677 4.717 9.313 2.748.872 36.003 4.59 41.056 4.59 3.671 0 4.415-.364 5.252-2.565 1.214-3.193-.21-6.195-3.304-6.963-1.221-.304-9.582-2.027-18.579-3.829-10.474-2.098-16.627-3.792-17.108-4.71-.413-.788-1.29-8.183-1.949-16.433-1.775-22.227-2.147-24.59-3.975-25.265-3.789-1.4-9.143-5.675-11.665-9.314L174.728 56l-9.114.196c-5.013.108-15.512.445-23.332.75M62.5 63.496c-35.865 1.297-35.715 1.336 9.5 2.448 25.844.635 32.78.538 33.868-.477 2.39-2.227.243-3.474-5.677-3.298-3.13.094-20.091.691-37.691 1.327m-7.27 15.526c-16.649.377-30.514.929-30.811 1.226-.655.655 17.724 1.505 50.326 2.328 22.208.561 24.3.47 24.896-1.083.967-2.521-1.396-3.481-8.141-3.31-3.3.084-19.622.462-36.27.839m-7.443 15.95c-44.256.956-39.71 1.62 24.963 3.648 19.803.621 20.25.591 20.25-1.368 0-2.372-3.591-3.343-11.375-3.076-2.819.097-18.046.455-33.838.796"/><path fill="#1976D2" fill-opacity=".261" fill-rule="evenodd" d="M0 128.004v128.004l128.25-.254 128.25-.254.254-127.75L257.008 0H0zm.485.496c0 70.4.119 99.053.265 63.672s.146-92.98 0-128S.485 58.1.485 128.5M192.667 26.222c-8.826 2.339-15.816 14.095-13.732 23.094 3.965 17.117 25.092 21.755 35.753 7.849 6.218-8.11 5.403-18.337-2.055-25.795-5.808-5.809-11.72-7.333-19.966-5.148M133 56.666c-8.426 1.327-7.801.182-14.544 26.63-4.367 17.126-4.652 18.936-3.214 20.375 1.725 1.725 6.367 2.12 7.821.666.502-.502 3.295-8.321 6.206-17.375l5.294-16.462 9.219-.288c5.07-.158 9.218.109 9.218.594 0 1.704-3.964 12.373-8.105 21.816-2.831 6.456-6.424 12.349-11.104 18.211-3.804 4.767-7.767 10.293-8.805 12.28s-3.448 4.913-5.355 6.5c-1.908 1.588-8.887 7.725-15.511 13.637s-12.847 10.747-13.831 10.744-4.76-2.365-8.392-5.25c-16.322-12.963-27.387-21.41-30.645-23.394-4.575-2.786-8.409-1.646-10.7 3.181-3.142 6.622-2.198 7.876 24.783 32.899 18.758 17.397 22.463 19.758 27.793 17.718 2.251-.861 24.135-17.903 38.936-30.319 2.511-2.106 4.903-3.829 5.316-3.829 1.047 0 36.095 30.164 38.216 32.89.603.775 5.053 10.455 9.888 21.51 12.941 29.585 14.253 32.198 17.115 34.073 5.016 3.286 12.401-.291 12.401-6.006 0-2.425-17.556-57.697-19.557-61.574-.741-1.434-7.106-7.804-14.145-14.157s-14.232-13.055-15.984-14.893l-3.185-3.343 9.107-12c5.01-6.6 9.368-11.91 9.685-11.8s1.087 2.744 1.71 5.854c1.846 9.217 2.068 9.32 26.009 12.039 11.473 1.304 21.39 2.379 22.039 2.389 4.018.062 5.942-8.044 2.363-9.959-1.076-.577-9.957-2.648-19.734-4.603-9.777-1.956-17.956-3.735-18.175-3.953-.219-.219-.548-2.551-.732-5.183-.901-12.876-2.537-31.077-3.01-33.491-.371-1.888-2.025-3.627-5.466-5.744-2.715-1.67-6.171-4.823-7.68-7.005l-2.745-3.968-20 .098c-11 .054-21.125.276-22.5.492m-77.415 6.486c-21.896.774-25.708 1.121-24.502 2.232.229.211 17.292.548 37.917.75l37.5.366.32-2.25c.319-2.246.297-2.25-13.5-2.096-7.601.084-24.582.534-37.735.998M44.5 79.024c-11 .344-20.203.704-20.45.801-.248.096-.023.592.5 1.102.522.51 17.712 1.251 38.2 1.647l37.25.72V78l-17.75.2c-9.763.109-26.75.48-37.75.824m-9.36 16.07c-9.547.435-17.57 1.003-17.828 1.261-1.411 1.41 70.566 3.749 74.511 2.421 1.478-.498 2.2-1.417 1.987-2.529-.306-1.591-2.165-1.756-20.823-1.846-11.268-.055-28.299.257-37.847.693"/><path fill="#1976D2" fill-opacity=".11" fill-rule="evenodd" d="M0 128.004v128.004l128.25-.254 128.25-.254.254-127.75L257.008 0H0zm.485.496c0 70.4.119 99.053.265 63.672s.146-92.98 0-128S.485 58.1.485 128.5M191 26.539c-8.125 3.647-12.346 10.13-12.346 18.961 0 6.977 1.72 10.865 6.768 15.297 6.488 5.697 14.375 6.603 22.449 2.58 7.144-3.56 10.428-8.597 10.917-16.744.458-7.644-2.277-13.376-8.552-17.922-5.187-3.758-13.589-4.706-19.236-2.172m-48.726 29.407c-12.606.491-14.46.789-16.282 2.614-1.426 1.428-3.684 8.331-7.362 22.5-2.918 11.242-5.106 21.032-4.863 21.755.627 1.861 4.936 3.298 7.762 2.588 2.105-.528 3.054-2.673 7.96-18.001L135.059 70h9.038c10.486 0 10.038-1.447 4.172 13.5-5.373 13.69-8.996 20.326-15.282 28-3.155 3.85-6.891 8.862-8.303 11.138-2.464 3.97-23.751 23.903-31.15 29.167l-3.56 2.533-3.909-2.919c-2.15-1.605-10.27-7.869-18.046-13.919s-15.348-11.797-16.828-12.77c-3.34-2.198-6.91-1.528-9.941 1.863-2.741 3.069-2.867 6.884-.361 10.993 1.981 3.249 38.064 37.425 42.833 40.569 1.528 1.008 4.459 1.835 6.513 1.838 3.293.006 5.601-1.495 19.5-12.682 8.671-6.978 18.388-14.863 21.593-17.522l5.829-4.833 3.671 2.944c2.02 1.619 10.638 8.962 19.151 16.319l15.479 13.376 7.69 17.452C200.406 234.214 200.859 235 206.155 235c3.144 0 6.851-1.56 8.08-3.4 1.729-2.59.312-8.98-7.283-32.828-4.426-13.9-8.73-27.162-9.564-29.473-1.196-3.313-4.989-7.434-17.949-19.5-9.038-8.414-16.434-15.684-16.436-16.155s2.843-4.521 6.322-9 7.495-9.887 8.926-12.017l2.6-3.872 1.248 6.341c1.562 7.94 3.851 10.393 10.45 11.195 23.167 2.816 38.77 3.998 40.28 3.053 2.207-1.382 2.739-7.628.788-9.247-.816-.677-9.502-2.82-19.301-4.762s-18.123-3.824-18.499-4.183-1.372-9.235-2.214-19.725-1.783-19.716-2.091-20.5c-.309-.785-2.827-2.679-5.595-4.209-3.333-1.843-5.944-4.282-7.726-7.219l-2.691-4.436-9.5.165c-5.225.09-15.902.413-23.726.718M71.5 62.13c-29.966.982-41.5 1.774-41.5 2.851 0 .774 18.693 1.555 56.804 2.374 15.004.323 18.565.133 19.748-1.05 1.074-1.074 1.179-1.939.411-3.374-.818-1.529-2.015-1.899-5.748-1.776zM57 78.108c-17.325.495-32.138 1.138-32.917 1.429-.938.35-1.082.864-.424 1.522 1.496 1.496 74.293 3.226 76.004 1.806 1.517-1.259 1.763-3.484.472-4.281-1.949-1.205-13.25-1.33-43.135-.476M34.25 94.739c-10.718.191-17.25.69-17.25 1.316 0 .554.563 1.197 1.25 1.429 2.082.701 72.784 2.44 74.375 1.83.822-.316 1.346-1.513 1.178-2.691-.298-2.086-.673-2.124-21.303-2.158-11.55-.019-28.763.104-38.25.274"/></svg>